<?xml version="1.0" standalone="no"?><!DOCTYPE svg PUBLIC "-//W3C//DTD SVG 1.1//EN" "http://www.w3.org/Graphics/SVG/1.1/DTD/svg11.dtd"><svg class="icon" height="512" viewBox="0 0 1092 1024" version="1.1" xmlns="http://www.w3.org/2000/svg"><path d="M184.04486 3.417511l396.910135 0c0.118705 43.924897-0.189529 87.849794 0.160601 131.775689 1.715738 46.251119 23.998392 95.783089 68.003091 115.790394 14.768318 6.605593 31.18155 7.833543 47.156869 7.643016 46.95936 0.01995 93.907747-0.079802 140.865112 0.049876 0.079802 84.317568 0.069827 168.646108 0 252.973651-45.971813-4.679377-93.307239-0.629437-136.745345 15.766838-57.874249 21.463687-108.434665 62.025937-141.87261 113.934005-99.444994 0.189529-198.889987-0.049876-298.333983 0.118705-20.026258-0.149628-39.105867 10.546803-50.790843 26.562024-12.97178 17.052644-15.55636 40.862504-8.052998 60.740131 9.328829 23.449754 33.477846 40.431574 58.902695 40.152268 84.436273 0.129678 168.874541 0.01995 253.311811 0.049876-5.937253 67.555203 10.656531 137.28301 49.97088 192.923806-120.059789 0.01995-240.121574 0.01995-360.191339 0-16.194775 0.199504-31.920714-4.948708-46.239149-12.183737-28.62889-14.589761-53.464203-36.899348-70.428067-64.240436-10.915887-16.835184-17.293047-36.690865-17.063617-56.836826-0.038903-228.834609 0.010973-457.670216-0.01995-686.515798-1.416482-38.805613 18.130965-75.766807 45.19175-102.528335 18.927986-18.310519 42.407666-33.716254 69.259969-36.170159M250.610521 387.07656c-21.584388 3.203044-40.662002 18.648679-49.004281 38.70586-8.131802 20.68562-5.078386 45.781286 9.140297 63.133187 11.913409 15.396757 30.893266 25.176465 50.491586 24.867234 128.031988 0.038903 256.076943 0.079802 384.119904-0.01995 30.464331 0.310229 58.533611-24.536056 62.522703-54.601378 6.954726-36.542235-24.646781-73.192202-61.517201-72.870999-126.387073-0.179554-252.774147-0.01995-379.160223-0.079802-5.549217-0.010973-11.116389-0.010973-16.593784 0.868842L250.610521 387.07656zM645.337079 3.417511l10.147794 0c26.792452 4.789105 46.798759 25.016862 67.263926 41.37124 35.523764 30.803489 72.742319 60.659331 101.311358 98.336746 11.274995 14.169804 14.818194 32.379574 13.081507 50.102553-50.271134 0.109727-100.542268 0.079802-150.804424 0.010973-8.450011 0.189529-16.144898-4.539724-21.123532-11.125366-12.384239-14.678541-18.828233-33.936706-19.827751-52.954469-0.118705-41.91888-0.01995-83.827784-0.049876-125.737686L645.337079 3.417511zM783.938814 575.939453c7.264955-0.507739 14.838144-0.219455 21.922548-0.847894 23.568459 0.538662 47.338418 3.650932 69.630049 11.53435 54.621329 16.41423 100.902374 56.647297 127.724751 106.680023 28.029379 53.784408 34.326738 118.991443 14.818194 176.647235-18.529974 61.04637-66.186602 112.077616-124.91074 136.474019-55.598901 23.349005-120.439845 23.489655-176.169422 0.069827-49.8821-20.396339-91.532647-60.2693-114.591372-108.944398-24.546031-52.367926-29.146604-114.213311-10.328346-169.103971 21.293111-69.259969 80.047175-124.889792 149.487695-144.479135 11.355794-2.944686 23.029797-5.299836 34.496316-7.125302 2.604531-0.389034 5.549217 0.199504 7.922322-0.908743M771.892734 669.027237c-0.729189 32.748657 0.408984 65.578114-0.56759 98.306821-24.517103 0.199504-49.871128-0.678315-73.870517 0.868842-2.974612-1.307752-6.196609 0.288284-9.309876-0.45886-12.593719-0.310229-27.878753-0.099752-36.390611 11.395695-16.623709 17.052644-4.639476 48.566368 18.430222 51.847219 10.427101 0.827944 20.91505-0.118705 31.242399 0.749139 2.174599-1.436432 5.468417 1.118223 7.663964-0.288284 20.834251 0.997522 41.769251 0.389034 62.653378 0.649387-0.079802 31.771085-0.069827 63.542171-0.030923 95.303281-0.310229 16.863115 15.176304 32.718732 32.259871 31.570583 16.205747 0.379058 31.031921-14.318435 31.093768-30.574059 0.389034-32.349648 0.619461-64.708274 0.938668-97.059918 33.924736-0.31821 67.883388 0.497764 101.788173-0.417962 13.940374-3.452425 25.464749-16.494031 25.036812-31.223446 0.468835-13.252084-8.950768-25.356019-20.993854-30.045372-9.419603-2.804035-19.408791-1.236928-29.036877-1.607008-25.584452-0.030923-51.178879-0.069827-76.774304 0.030923-0.368086-32.359624-0.507739-64.720245-0.957621-97.078871 0.069827-14.039129-10.884963-26.222866-23.848763-30.243879-18.200792-4.260418-38.068444 9.419603-39.324324 28.279757L771.892734 669.027237z" /></svg>